<svg xmlns="http://www.w3.org/2000/svg" viewBox="0 0 96 96" role="img" aria-label="CloseFlow icon">
  <title>CloseFlow</title>
  <rect width="96" height="96" rx="20" fill="#F7F9FC"/>
  <path d="M19 25.5C19 22.46 21.46 20 24.5 20h47C74.54 20 77 22.46 77 25.5v32C77 60.54 74.54 63 71.5 63h-47C21.46 63 19 60.54 19 57.5v-32Z" fill="#FFFFFF" stroke="#334155" stroke-width="4"/>
  <path d="M22 31h52" stroke="#CBD5E1" stroke-width="4"/>
  <path d="M61 30l9 9M70 30l-9 9" stroke="#C82333" stroke-width="4" stroke-linecap="round"/>
  <path d="M48 44c0 10.2 0 15.6 0 21.5" stroke="#2563EB" stroke-width="6" stroke-linecap="round"/>
  <path d="M38.5 57.5 48 67l9.5-9.5" fill="none" stroke="#2563EB" stroke-width="6" stroke-linecap="round" stroke-linejoin="round"/>
  <path d="M28 76h40" stroke="#334155" stroke-width="6" stroke-linecap="round"/>
  <path d="M36 69h24" stroke="#94A3B8" stroke-width="4" stroke-linecap="round"/>
</svg>
